<?xml version="1.0" encoding="UTF-8"?><svg xmlns="http://www.w3.org/2000/svg" width="972.33" height="340" viewBox="0 0 972.33 340"><g id="Layer_5"><path d="M467.43,228.72l-41.64,96.75h-83.58l5.13,13.31h91.6l36.72-85.33-8.23-24.74Z" fill="#a7a9ac"/><path d="M736.19,14.93l-151.59,310.54h-76.24l4.43,13.31h84.96L755.84,14.92h-19.65Z" fill="#a7a9ac"/><polygon points="871.46 182.15 757.28 182.15 715.29 272.51 734.09 272.51 771.55 195.91 866.76 195.91 881.78 160.48 871.46 182.15" fill="#a7a9ac"/><path d="M641.17,325.6l-5.78,13.63c28.46.25,142.41,1.01,173.64.68l5.83-13.75c-32.81.24-127.43-.26-173.69-.57Z" fill="#a7a9ac"/><polygon points="818.04 51.41 781.06 130.99 804.04 130.99 830.94 68.81 939.32 68.81 947.82 51.41 818.04 51.41" fill="#a7a9ac"/><path d="M161.92,59h0c-57-.05-103.11,46.1-103.02,103.1.02,11.56,1.96,22.66,5.48,33.04-1.29-6.79-1.97-13.79-1.97-20.94,0-42.38,45.11-95.25,103.93-96.35,0,0,57.17-.82,57.17-.82l-6.74-18.03h-54.85Z" fill="#a7a9ac"/><path d="M310.68,339l-5.15-13.77h-143.91C74.66,324.67,3.77,255.7.16,169.48.06,171.84,0,174.21,0,176.6c.14,89.29,72.43,161.82,161.62,162.38h0s149.06.01,149.06.01Z" fill="#a7a9ac"/><path d="M861.31,289.81h-3.65l3.04-14.39h-4.21l.66-3.08h12.07l-.66,3.08h-4.22l-3.04,14.39Z" fill="#a7a9ac"/><path d="M877.52,285.4l6.56-13.06h5.06l-3.69,17.47h-3.35l1.73-8.27c.29-1.35.72-3.1,1.3-5.27h-.11l-6.8,13.54h-3.36l-.73-13.54h-.1c-.17,1.45-.49,3.25-.93,5.41l-1.71,8.13h-3.29l3.69-17.47h4.83l.78,13.06h.11Z" fill="#a7a9ac"/></g><g id="Layer_3"><polygon points="666.19 1.64 544.1 268.68 453.56 1.64 378.6 1.61 435.97 160.18 384.8 266.87 295.21 1.61 214.92 1.61 334.19 325.47 354.74 325.47 404.6 325.47 425.79 325.47 467.43 228.72 499.63 325.47 515.18 325.47 565.22 325.47 584.59 325.47 742.69 1.61 666.19 1.64" fill="#fff"/><polygon points="666.19 1.64 544.1 268.68 505.97 156.21 499.5 156.21 538.3 270.64 543.25 285.24 549.66 271.22 670.12 7.76 732.89 7.73 580.77 319.35 565.22 319.35 515.18 319.35 504.05 319.35 473.23 226.79 468.16 211.54 461.81 226.3 421.76 319.35 404.6 319.35 354.74 319.35 338.45 319.35 223.7 7.73 290.82 7.73 379.01 268.83 383.82 283.07 390.32 269.52 441.49 162.83 442.6 160.51 441.72 158.1 387.32 7.73 449.17 7.76 475.72 86.07 482.18 86.07 453.56 1.64 378.6 1.61 435.97 160.18 384.8 266.87 295.21 1.61 214.92 1.61 334.19 325.47 354.74 325.47 404.6 325.47 425.79 325.47 467.43 228.72 499.63 325.47 515.18 325.47 565.22 325.47 584.59 325.47 742.69 1.61 666.19 1.64" fill="#872739"/><path d="M715.29,272.51l42-90.37h114.18l24.37-51.16h-114.77l36.98-79.57h130.25L972.33.93c-7.02-2.17-195.73.27-195.07-.68l-154.89,325.22c31.97.25,159.98,1.01,195.07.68l25.54-53.63h-127.69Z" fill="#3a51a1"/><path d="M306.84,325.23l-22.33-59.72h-122.6c-56.84-.31-102.93-46.52-103.02-103.41-.09-57,46.03-103.15,103.02-103.1h0s55.62,0,55.62,0L195.82.93h-34.12C72.23.9-.14,73.35,0,162.84c.14,89.29,72.43,161.82,161.62,162.38h0s145.22.01,145.22.01Z" fill="#3a51a1"/></g></svg>